<?xml version="1.0" encoding="iso-8859-1"?>
<!-- Generator: Adobe Illustrator 19.0.0, SVG Export Plug-In . SVG Version: 6.00 Build 0)  -->
<svg version="1.1" id="Layer_1" xmlns="http://www.w3.org/2000/svg" xmlns:xlink="http://www.w3.org/1999/xlink" x="0px" y="0px"
	 viewBox="0 0 512.001 512.001" style="enable-background:new 0 0 512.001 512.001;" xml:space="preserve">
<g>
	<g>
		<g>
			<path d="M159.986,0c-11.429,0-20.728,9.298-20.728,20.728v94.459h-5.242V20.728C134.017,9.298,124.718,0,113.288,0
				C101.858,0,92.56,9.298,92.56,20.728v94.459h-5.241V20.728C87.319,9.298,78.021,0,66.591,0c-11.43,0-20.729,9.298-20.729,20.728
				v103.009c0,18.145,14.762,32.909,32.908,32.909H92.56v133.202h-5.72c-4.442,0-8.043,3.6-8.043,8.043v35.101v144.521
				c0,19.017,15.472,34.489,34.49,34.489s34.491-15.472,34.491-34.489V332.991V297.89c0-4.443-3.601-8.043-8.043-8.043h-5.72
				V156.644h13.792c18.144,0,32.906-14.763,32.906-32.909V20.728C180.715,9.298,171.416,0,159.986,0z M131.695,477.512
				c0,10.147-8.257,18.403-18.406,18.403c-10.149,0-18.405-8.256-18.405-18.404V341.033h36.811V477.512z M131.695,324.947H94.882
				v-19.015h5.719h25.372h5.721V324.947z M108.645,289.846V156.644h9.287v133.202H108.645z M147.809,140.56h-21.834h-25.372H78.769
				c-9.275,0-16.822-7.546-16.822-16.823V20.728c0-2.56,2.083-4.642,4.643-4.642c2.56,0,4.642,2.083,4.642,4.642v102.502
				c0,4.443,3.601,8.043,8.043,8.043h21.326c4.442,0,8.043-3.6,8.043-8.043V20.728c0-2.56,2.083-4.642,4.643-4.642
				s4.643,2.083,4.643,4.642v102.502c0,4.443,3.601,8.043,8.043,8.043h21.327c4.442,0,8.043-3.6,8.043-8.043V20.728
				c0-2.56,2.083-4.642,4.642-4.642c2.561,0,4.643,2.083,4.643,4.642v103.009h0.001C164.63,133.013,157.084,140.56,147.809,140.56z"
				/>
			<path d="M267.634,0c-20.052,0-38.725,10.582-52.579,29.798c-13.281,18.422-20.596,42.778-20.596,68.581
				c0,42.703,20.75,74.69,52.446,84.329v107.138h-5.72c-4.442,0-8.043,3.6-8.043,8.043v35.101V477.51
				c0,19.017,15.473,34.489,34.491,34.489c19.017,0,34.49-15.472,34.49-34.489v-81.808c0-4.443-3.6-8.043-8.043-8.043
				s-8.043,3.6-8.043,8.043v81.809c0,10.148-8.256,18.404-18.405,18.404c-10.149,0-18.406-8.256-18.406-18.404V341.033h36.811
				v30.004c0,4.443,3.6,8.043,8.043,8.043s8.043-3.6,8.043-8.043v-38.046V297.89c0-4.443-3.6-8.043-8.043-8.043h-5.72V182.709
				c31.695-9.641,52.445-41.628,52.445-84.331c0-25.804-7.314-50.159-20.595-68.58C306.358,10.582,287.685,0,267.634,0z
				 M286.038,324.948h-36.811v-19.015h5.72h25.371h5.72V324.948z M262.99,289.846V185.588c0.052,0.003,0.104,0.004,0.156,0.008
				c0.381,0.023,0.765,0.039,1.148,0.056c1.111,0.052,2.222,0.087,3.334,0.087c0.002,0,0.004,0,0.005,0c0.002,0,0.005,0,0.008,0
				c1.111,0,2.221-0.035,3.331-0.087c0.384-0.017,0.769-0.033,1.151-0.056c0.051-0.003,0.103-0.004,0.153-0.008v104.258H262.99z
				 M279.401,168.435c-0.233,0.027-0.465,0.056-0.697,0.103c-7.229,1.481-14.917,1.481-22.141,0c-0.224-0.046-0.45-0.073-0.676-0.1
				c-27.554-5.849-45.343-32.528-45.343-70.06c0-45.376,25.61-82.293,57.089-82.293c31.479,0,57.087,36.917,57.087,82.293
				C324.722,135.901,306.943,162.577,279.401,168.435z"/>
			<path d="M458.096,103.483c4.443,0,8.043-3.6,8.043-8.043V8.043c0-2.256-0.948-4.41-2.613-5.932
				c-1.664-1.524-3.894-2.277-6.14-2.078c-0.826,0.073-20.414,1.947-40.003,15.581c-18.051,12.565-39.568,37.784-39.568,86.583
				v195.692c0,4.443,3.6,8.043,8.043,8.043h11.299v27.058v144.521c0,19.017,15.473,34.489,34.49,34.489s34.49-15.472,34.49-34.489
				v-144.52V297.89V120.104c0-4.443-3.6-8.043-8.043-8.043c-4.443,0-8.043,3.6-8.043,8.043v169.742h-44.853H393.9V102.197
				c0-62.027,38.379-79.6,56.152-84.412V95.44C450.053,99.883,453.653,103.483,458.096,103.483z M413.243,305.932h36.81v19.015
				h-36.81V305.932z M413.243,341.033h36.81v136.478c0,10.147-8.257,18.403-18.405,18.403c-10.149,0-18.405-8.256-18.405-18.404
				V341.033z"/>
		</g>
	</g>
</g>
<g>
</g>
<g>
</g>
<g>
</g>
<g>
</g>
<g>
</g>
<g>
</g>
<g>
</g>
<g>
</g>
<g>
</g>
<g>
</g>
<g>
</g>
<g>
</g>
<g>
</g>
<g>
</g>
<g>
</g>
</svg>
