<?xml version="1.0" encoding="iso-8859-1"?>
<!-- Generator: Adobe Illustrator 19.0.0, SVG Export Plug-In . SVG Version: 6.00 Build 0)  -->
<svg version="1.1" id="Capa_1" xmlns="http://www.w3.org/2000/svg" xmlns:xlink="http://www.w3.org/1999/xlink" x="0px" y="0px"
	 viewBox="0 0 512.023 512.023" style="enable-background:new 0 0 512.023 512.023;" xml:space="preserve">
<g>
	<g>
		<g>
			<path d="M210.425,386.059l15.858-60.135c0.841,0.049,1.687,0.082,2.54,0.082c11.351,0.017,22.242-4.489,30.261-12.523
				c8.03-8.023,12.543-18.908,12.546-30.259c0.007-23.635-19.147-42.8-42.782-42.807c-23.635-0.007-42.8,19.147-42.807,42.782
				c0,0.874,0.034,1.74,0.085,2.601l-60.096,15.847l-63.873-63.886c-4.165-4.164-10.917-4.164-15.083,0
				c-0.022,0.022-0.044,0.044-0.066,0.066c-62.703,62.74-62.674,164.431,0.066,227.134c30.057,30.228,70.961,47.171,113.589,47.051
				c42.621,0.116,83.516-16.827,113.568-47.051c4.164-4.165,4.164-10.917,0-15.083L210.425,386.059z M228.823,261.761
				c5.691-0.006,11.151,2.251,15.179,6.272c4.029,4.022,6.295,9.479,6.3,15.172c0.009,11.853-9.591,21.469-21.444,21.478
				s-21.469-9.591-21.478-21.444S216.971,261.77,228.823,261.761z M192.703,306.129c3.386,5.328,7.915,9.853,13.246,13.235
				l-12.983,49.232l-49.479-49.489L192.703,306.129z M62.157,449.878c-51.474-51.477-54.635-133.906-7.253-189.173L213.24,419.041
				c-33.65,26.173-82.283,23.846-113.238-7.03l-15.083,15.083c20.072,20.1,47.327,31.371,75.733,31.317
				c24.82,0.036,48.759-8.576,67.79-24.167l22.888,22.888C196.063,504.513,113.633,501.353,62.157,449.878z"/>
			<path d="M234.69,202.678v21.333c29.441,0.035,53.298,23.893,53.333,53.333h21.333C309.31,236.127,275.908,202.725,234.69,202.678
				z"/>
			<path d="M352.023,277.345c-0.076-64.77-52.564-117.257-117.333-117.333v21.333c52.995,0.059,95.941,43.005,96,96H352.023z"/>
			<path d="M394.69,277.345c-0.1-88.324-71.676-159.9-160-160v21.333c76.547,0.088,138.578,62.12,138.667,138.667H394.69z"/>
			<path d="M480.023,0.011h-384c-17.673,0-32,14.327-32,32v181.333h21.333V32.011c0-5.891,4.776-10.667,10.667-10.667h21.333
				v234.667h21.333V212c18.402-4.737,32-21.441,32-41.322s-13.598-36.586-32-41.322V21.345h341.333
				c5.891,0,10.667,4.776,10.667,10.667v277.333c0,5.891-4.776,10.667-10.667,10.667H277.357v21.333h202.667
				c17.673,0,32-14.327,32-32V32.011C512.023,14.338,497.696,0.011,480.023,0.011z M149.357,170.678
				c0,7.892-4.296,14.766-10.667,18.456v-36.912C145.06,155.912,149.357,162.786,149.357,170.678z"/>
			<rect x="448.023" y="42.678" width="21.333" height="21.333"/>
			<rect x="448.023" y="85.345" width="21.333" height="21.333"/>
			<rect x="405.357" y="42.678" width="21.333" height="21.333"/>
			<rect x="160.023" y="42.678" width="21.333" height="21.333"/>
			<rect x="202.69" y="42.678" width="64" height="21.333"/>
		</g>
	</g>
</g>
<g>
</g>
<g>
</g>
<g>
</g>
<g>
</g>
<g>
</g>
<g>
</g>
<g>
</g>
<g>
</g>
<g>
</g>
<g>
</g>
<g>
</g>
<g>
</g>
<g>
</g>
<g>
</g>
<g>
</g>
</svg>
