<?xml version="1.0" encoding="iso-8859-1"?>
<!-- Generator: Adobe Illustrator 19.0.0, SVG Export Plug-In . SVG Version: 6.00 Build 0)  -->
<svg version="1.1" id="Capa_1" xmlns="http://www.w3.org/2000/svg" xmlns:xlink="http://www.w3.org/1999/xlink" x="0px" y="0px"
	 viewBox="0 0 512 512" style="enable-background:new 0 0 512 512;" xml:space="preserve">
<g>
	<g>
		<g>
			<path d="M0,56v32h16v272c0,26.51,21.49,48,48,48v48h32v-48h320v48h32v-48c26.51,0,48-21.49,48-48V88h16V56H0z M240,376H64
				c-8.837,0-16-7.163-16-16V248h192V376z M240,216H48V88h192V216z M464,360c0,8.837-7.163,16-16,16H272V88h192V360z"/>
			<rect x="320" y="216" width="32" height="32"/>
			<rect x="128" y="296" width="32" height="32"/>
			<rect x="128" y="136" width="32" height="32"/>
		</g>
	</g>
</g>
<g>
</g>
<g>
</g>
<g>
</g>
<g>
</g>
<g>
</g>
<g>
</g>
<g>
</g>
<g>
</g>
<g>
</g>
<g>
</g>
<g>
</g>
<g>
</g>
<g>
</g>
<g>
</g>
<g>
</g>
</svg>
