<?xml version="1.0" encoding="iso-8859-1"?>
<!-- Generator: Adobe Illustrator 19.0.0, SVG Export Plug-In . SVG Version: 6.00 Build 0)  -->
<svg version="1.1" id="Layer_1" xmlns="http://www.w3.org/2000/svg" xmlns:xlink="http://www.w3.org/1999/xlink" x="0px" y="0px"
	 viewBox="0 0 455 455" style="enable-background:new 0 0 455 455;" xml:space="preserve">
<g transform="translate(0 -540.36)">
	<g>
		<g>
			<path d="M360.5,589.56h-66.2c-22.7,0-41.2,18.5-41.2,41.2v66.1c0,22.7,18.5,41.2,41.2,41.2h66.2c22.7,0,41.2-18.5,41.2-41.2
				v-66.1C401.8,608.06,383.3,589.56,360.5,589.56z M386.8,696.86c0,5.5-1.7,10.6-4.5,14.8l-7.1-7c-2.9-2.9-7.7-2.9-10.6,0
				c-2.9,2.9-2.9,7.7,0,10.6l5.9,5.9c-3.1,1.2-6.4,1.9-10,1.9h-66.2c-3.5,0-6.7-0.6-9.7-1.8l6.5-5.6c3.1-2.7,3.5-7.4,0.8-10.6
				c-2.7-3.1-7.4-3.5-10.6-0.8l-8.7,7.5c-2.9-4.2-4.5-9.3-4.5-14.8v-66.1c0-5.6,1.7-10.7,4.5-14.8l8.7,7.5c1.4,1.2,3.1,1.8,4.9,1.8
				c2.1,0,4.2-0.9,5.7-2.6c2.7-3.1,2.3-7.9-0.8-10.6l-6.5-5.6c3-1.2,6.3-1.8,9.7-1.8h66.2c3.5,0,6.9,0.7,10,1.9l-5.9,5.9
				c-2.9,2.9-2.9,7.7,0,10.6c1.5,1.5,3.4,2.2,5.3,2.2c1.9,0,3.8-0.7,5.3-2.2l7.1-7c2.8,4.2,4.5,9.3,4.5,14.8V696.86z"/>
			<path d="M160.7,589.56H94.5c-22.7,0-41.2,18.5-41.2,41.2v66.1c0,22.7,18.5,41.2,41.2,41.2h66.2c22.7,0,41.2-18.5,41.2-41.2v-66.1
				C201.9,608.06,183.4,589.56,160.7,589.56z M187,696.86l-0.1,0c0,5.5-1.7,10.6-4.5,14.8l-7.1-7c-2.9-2.9-7.7-2.9-10.6,0
				c-2.9,2.9-2.9,7.7,0,10.6l5.9,5.9c-3.1,1.2-6.4,1.9-10,1.9H94.5c-3.5,0-6.7-0.6-9.7-1.8l6.5-5.6c3.1-2.7,3.5-7.4,0.8-10.6
				c-2.7-3.1-7.4-3.5-10.6-0.8l-8.7,7.5c-2.9-4.2-4.5-9.3-4.5-14.8v-66.1c0-5.6,1.7-10.7,4.5-14.8l8.7,7.5c1.4,1.2,3.1,1.8,4.9,1.8
				c2.1,0,4.2-0.9,5.7-2.6c2.7-3.1,2.3-7.9-0.8-10.6l-6.5-5.6c3-1.2,6.3-1.8,9.7-1.8h66.2c3.5,0,6.9,0.7,10,1.9l-5.9,5.9
				c-2.9,2.9-2.9,7.7,0,10.6c1.5,1.5,3.4,2.2,5.3,2.2c1.9,0,3.8-0.7,5.3-2.2l7.1-7c2.8,4.2,4.5,9.3,4.5,14.8V696.86z"/>
			<path d="M360.5,772.16h-66.2c-22.7,0-41.2,18.5-41.2,41.2v66.1c0,22.7,18.5,41.2,41.2,41.2h66.2c22.7,0,41.2-18.5,41.2-41.2
				v-66.1C401.8,790.66,383.3,772.16,360.5,772.16z M386.8,879.46c0,5.5-1.7,10.6-4.5,14.8l-7.1-7c-2.9-2.9-7.7-2.9-10.6,0
				c-2.9,2.9-2.9,7.7,0,10.6l5.9,5.9c-3.1,1.2-6.4,1.9-10,1.9h-66.2c-3.5,0-6.7-0.6-9.7-1.8l6.5-5.6c3.1-2.7,3.5-7.4,0.8-10.6
				c-2.7-3.1-7.4-3.5-10.6-0.8l-8.7,7.5c-2.9-4.2-4.5-9.3-4.5-14.8v-66.1c0-5.6,1.7-10.7,4.5-14.8l8.7,7.5c1.4,1.2,3.1,1.8,4.9,1.8
				c2.1,0,4.2-0.9,5.7-2.6c2.7-3.1,2.3-7.9-0.8-10.6l-6.5-5.6c3-1.2,6.3-1.8,9.7-1.8h66.2c3.5,0,6.9,0.7,10,1.9l-5.9,5.9
				c-2.9,2.9-2.9,7.7,0,10.6c1.5,1.5,3.4,2.2,5.3,2.2c1.9,0,3.8-0.7,5.3-2.2l7.1-7c2.8,4.2,4.5,9.3,4.5,14.8V879.46z"/>
			<path d="M127.6,805.86c-22.3,0-40.5,18.2-40.5,40.5s18.2,40.5,40.5,40.5c22.3,0,40.5-18.2,40.5-40.5S149.9,805.86,127.6,805.86z
				 M127.6,871.86c-14.1,0-25.5-11.4-25.5-25.5s11.4-25.5,25.5-25.5c14,0,25.5,11.4,25.5,25.5S141.7,871.86,127.6,871.86z"/>
			<path d="M127.6,623.26c-22.3,0-40.5,18.2-40.5,40.5s18.2,40.5,40.5,40.5c22.3,0,40.5-18.2,40.5-40.5S149.9,623.26,127.6,623.26z
				 M127.6,689.26c-14.1,0-25.5-11.4-25.5-25.5s11.4-25.5,25.5-25.5c14,0,25.5,11.4,25.5,25.5S141.7,689.26,127.6,689.26z"/>
			<path d="M327.4,623.26c-22.3,0-40.5,18.2-40.5,40.5s18.2,40.5,40.5,40.5c22.4,0,40.5-18.2,40.5-40.5S349.7,623.26,327.4,623.26z
				 M327.4,689.26c-14.1,0-25.5-11.4-25.5-25.5s11.4-25.5,25.5-25.5c14.1,0,25.5,11.4,25.5,25.5S341.5,689.26,327.4,689.26z"/>
			<path d="M327.4,805.86c-22.3,0-40.5,18.2-40.5,40.5s18.2,40.5,40.5,40.5c22.4,0,40.5-18.2,40.5-40.5S349.7,805.86,327.4,805.86z
				 M327.4,871.86c-14.1,0-25.5-11.4-25.5-25.5s11.4-25.5,25.5-25.5c14.1,0,25.5,11.4,25.5,25.5S341.5,871.86,327.4,871.86z"/>
			<path d="M401.8,540.36H52c-21.7,0-40,18.3-40,39.9v349c0,22.7,18,41.2,40,41.2h349.8c22.7,0,41.2-18.5,41.2-41.2v-349
				C443,558.26,424.5,540.36,401.8,540.36z M428,929.26c0,14.7-11.5,26.2-26.2,26.2H52c-13.6,0-25-12-25-26.2v-349
				c0-13.3,11.7-24.9,25-24.9h349.8c14.2,0,26.2,11.4,26.2,24.9V929.26z"/>
			<path d="M110.7,980.36H94.5c-4.1,0-7.5,3.4-7.5,7.5s3.4,7.5,7.5,7.5h16.2c4.1,0,7.5-3.4,7.5-7.5S114.8,980.36,110.7,980.36z"/>
			<path d="M360.5,980.36h-16.2c-4.1,0-7.5,3.4-7.5,7.5s3.4,7.5,7.5,7.5h16.2c4.2,0,7.5-3.4,7.5-7.5S364.6,980.36,360.5,980.36z"/>
			<path d="M160.7,772.16H94.5c-22.7,0-41.2,18.5-41.2,41.2v66.1c0,22.7,18.5,41.2,41.2,41.2h66.2c22.7,0,41.2-18.5,41.2-41.2v-66.1
				C201.9,790.66,183.4,772.16,160.7,772.16z M187,879.46l-0.1,0c0,5.5-1.7,10.6-4.5,14.8l-7.1-7c-2.9-2.9-7.7-2.9-10.6,0
				c-2.9,2.9-2.9,7.7,0,10.6l5.9,5.9c-3.1,1.2-6.4,1.9-10,1.9H94.5c-3.5,0-6.7-0.6-9.7-1.8l6.5-5.6c3.1-2.7,3.5-7.4,0.8-10.6
				c-2.7-3.1-7.4-3.5-10.6-0.8l-8.7,7.5c-2.9-4.2-4.5-9.3-4.5-14.8v-66.1c0-5.6,1.7-10.7,4.5-14.8l8.7,7.5c1.4,1.2,3.1,1.8,4.9,1.8
				c2.1,0,4.2-0.9,5.7-2.6c2.7-3.1,2.3-7.9-0.8-10.6l-6.5-5.6c3-1.2,6.3-1.8,9.7-1.8h66.2c3.5,0,6.9,0.7,10,1.9l-5.9,5.9
				c-2.9,2.9-2.9,7.7,0,10.6c1.5,1.5,3.4,2.2,5.3,2.2c1.9,0,3.8-0.7,5.3-2.2l7.1-7c2.8,4.2,4.5,9.3,4.5,14.8V879.46z"/>
		</g>
	</g>
</g>
<g>
</g>
<g>
</g>
<g>
</g>
<g>
</g>
<g>
</g>
<g>
</g>
<g>
</g>
<g>
</g>
<g>
</g>
<g>
</g>
<g>
</g>
<g>
</g>
<g>
</g>
<g>
</g>
<g>
</g>
</svg>
