<?xml version="1.0" encoding="iso-8859-1"?>
<!-- Generator: Adobe Illustrator 19.0.0, SVG Export Plug-In . SVG Version: 6.00 Build 0)  -->
<svg version="1.1" id="Capa_1" xmlns="http://www.w3.org/2000/svg" xmlns:xlink="http://www.w3.org/1999/xlink" x="0px" y="0px"
	 viewBox="0 0 512 512" style="enable-background:new 0 0 512 512;" xml:space="preserve">
<g>
	<g>
		<path d="M231.327,404.539c-4.195,0-7.599,3.405-7.599,7.599v47.623c0,4.195,3.405,7.599,7.599,7.599s7.599-3.405,7.599-7.599
			v-47.623C238.927,407.943,235.522,404.539,231.327,404.539z"/>
	</g>
</g>
<g>
	<g>
		<path d="M231.327,482.56c-4.195,0-7.599,3.405-7.599,7.599v11.652c0,4.195,3.405,7.599,7.599,7.599s7.599-3.405,7.599-7.599
			v-11.652C238.927,485.964,235.522,482.56,231.327,482.56z"/>
	</g>
</g>
<g>
	<g>
		<path d="M270.611,404.537c-4.198,0-7.599,3.403-7.599,7.599v30.398c0,4.197,3.401,7.599,7.599,7.599s7.599-3.403,7.599-7.599
			v-30.398C278.211,407.939,274.809,404.537,270.611,404.537z"/>
	</g>
</g>
<g>
	<g>
		<path d="M270.611,463.814c-4.198,0-7.599,3.403-7.599,7.599v30.398c0,4.197,3.401,7.599,7.599,7.599s7.599-3.403,7.599-7.599
			v-30.398C278.211,467.217,274.809,463.814,270.611,463.814z"/>
	</g>
</g>
<g>
	<g>
		<path d="M349.174,404.537c-4.198,0-7.599,3.403-7.599,7.599v30.398c0,4.197,3.401,7.599,7.599,7.599s7.599-3.403,7.599-7.599
			v-30.398C356.774,407.939,353.372,404.537,349.174,404.537z"/>
	</g>
</g>
<g>
	<g>
		<path d="M349.174,463.814c-4.198,0-7.599,3.403-7.599,7.599v30.398c0,4.197,3.401,7.599,7.599,7.599s7.599-3.403,7.599-7.599
			v-30.398C356.774,467.217,353.372,463.814,349.174,463.814z"/>
	</g>
</g>
<g>
	<g>
		<path d="M309.895,404.539c-4.195,0-7.599,3.405-7.599,7.599v47.623c0,4.195,3.405,7.599,7.599,7.599
			c4.195,0,7.599-3.405,7.599-7.599v-47.623C317.495,407.943,314.09,404.539,309.895,404.539z"/>
	</g>
</g>
<g>
	<g>
		<path d="M309.895,482.56c-4.195,0-7.599,3.405-7.599,7.599v11.652c0,4.195,3.405,7.599,7.599,7.599
			c4.195,0,7.599-3.405,7.599-7.599v-11.652C317.495,485.964,314.09,482.56,309.895,482.56z"/>
	</g>
</g>
<g>
	<g>
		<path d="M388.453,482.56c-4.195,0-7.599,3.405-7.599,7.599v11.652c0,4.195,3.404,7.599,7.599,7.599
			c4.205,0,7.599-3.405,7.599-7.599v-11.652C396.053,485.964,392.658,482.56,388.453,482.56z"/>
	</g>
</g>
<g>
	<g>
		<path d="M388.453,404.539c-4.195,0-7.599,3.405-7.599,7.599v47.623c0,4.195,3.404,7.599,7.599,7.599
			c4.205,0,7.599-3.405,7.599-7.599v-47.623C396.053,407.943,392.658,404.539,388.453,404.539z"/>
	</g>
</g>
<g>
	<g>
		<path d="M427.739,404.537c-4.198,0-7.599,3.403-7.599,7.599v30.398c0,4.197,3.401,7.599,7.599,7.599s7.599-3.403,7.599-7.599
			v-30.398C435.339,407.939,431.936,404.537,427.739,404.537z"/>
	</g>
</g>
<g>
	<g>
		<path d="M427.739,463.814c-4.198,0-7.599,3.403-7.599,7.599v30.398c0,4.197,3.401,7.599,7.599,7.599s7.599-3.403,7.599-7.599
			v-30.398C435.339,467.217,431.936,463.814,427.739,463.814z"/>
	</g>
</g>
<g>
	<g>
		<path d="M467.021,404.539c-4.195,0-7.599,3.405-7.599,7.599v47.623c0,4.195,3.405,7.599,7.599,7.599
			c4.195,0,7.599-3.405,7.599-7.599v-47.623C474.621,407.943,471.216,404.539,467.021,404.539z"/>
	</g>
</g>
<g>
	<g>
		<path d="M467.021,482.56c-4.195,0-7.599,3.405-7.599,7.599v11.652c0,4.195,3.405,7.599,7.599,7.599
			c4.195,0,7.599-3.405,7.599-7.599v-11.652C474.621,485.964,471.216,482.56,467.021,482.56z"/>
	</g>
</g>
<g>
	<g>
		<path d="M490.651,332.131c-8.42-50.015-44.431-90.778-91.791-106.027v-0.01c-3.09-6.617-7.66-12.423-13.274-16.972v-76.947
			c0-23.862-9.14-46.498-25.727-63.724c-16.547-17.185-38.727-27.176-62.457-28.128c-4.205-0.193-7.731,3.09-7.903,7.285
			c-0.172,4.195,3.09,7.731,7.285,7.903c41.27,1.662,73.603,35.332,73.603,76.663v68.628c-8.381-2.776-18.118-2.972-25.443-1.652
			v-66.977c0-28.28-23.011-51.291-51.291-51.291h-171.18c-4.195,0-7.599,3.405-7.599,7.599s3.405,7.599,7.599,7.599h171.18
			c19.9,0,36.092,16.192,36.092,36.092v72.499c-8.623,4.914-15.564,12.412-19.779,21.451v0.01
			c-24.237,7.822-46.053,22.504-62.792,42.79c-2.665,3.242-2.209,8.025,1.034,10.7c3.232,2.675,8.025,2.209,10.69-1.023
			c63.016-76.4,195.271-50.311,216.027,52.152h-89.44c-4.205,0-7.599,3.394-7.599,7.599c0,4.195,3.394,7.599,7.599,7.599
			c9.207,0,81.693,0,96.108,0c8.382,0,15.209,6.813,15.209,15.209v0.122c0,8.39-6.829,15.209-15.209,15.209H269.821
			c-4.205,0-7.599,3.405-7.599,7.599c0,4.195,3.394,7.599,7.599,7.599h211.771c16.759,0,30.408-13.638,30.408-30.408v-0.122
			C512,347.543,503.002,336.002,490.651,332.131z M332.856,220.896c12.357-10.035,31.239-9.652,43.104-0.02
			C374.116,220.622,345.555,219.123,332.856,220.896z"/>
	</g>
</g>
<g>
	<g>
		<path d="M355.087,330.753H233.911c1.966-9.697,5.168-19.11,9.565-28.169c1.834-3.779,0.263-8.329-3.506-10.163
			c-3.779-1.834-8.329-0.263-10.163,3.516c-5.634,11.592-9.514,23.7-11.622,36.194c-12.352,3.871-21.349,15.412-21.349,29.03v0.122
			c0,16.769,13.649,30.408,30.408,30.408h12.179c4.195,0,7.599-3.405,7.599-7.599c0-4.195-3.405-7.599-7.599-7.599h-12.179
			c-8.38,0-15.209-6.819-15.209-15.209v-0.122c0-8.449,6.895-15.209,15.209-15.209c16.767,0,113.928,0,127.843,0
			c4.195,0,7.599-3.405,7.599-7.599C362.686,334.148,359.282,330.753,355.087,330.753z"/>
	</g>
</g>
<g>
	<g>
		<path d="M266.7,40.242H50.106C47.542,19.054,29.455,2.589,7.599,2.589C3.405,2.589,0,5.993,0,10.188v110.384
			c0,4.195,3.405,7.599,7.599,7.599c19.9,0,36.68-13.659,41.463-32.09h43.013c4.205,0,7.599-3.405,7.599-7.599
			c0-4.195-3.394-7.599-7.599-7.599H50.42V55.441H266.7c4.195,0,7.599-3.405,7.599-7.599S270.895,40.242,266.7,40.242z
			 M33.042,96.082c-3.222,7.63-9.778,13.517-17.844,15.827c0-10.93,0-78.195,0-93.058c11.53,3.294,20.022,13.951,20.022,26.558
			C35.221,89.998,35.722,89.797,33.042,96.082z"/>
	</g>
</g>
<g>
</g>
<g>
</g>
<g>
</g>
<g>
</g>
<g>
</g>
<g>
</g>
<g>
</g>
<g>
</g>
<g>
</g>
<g>
</g>
<g>
</g>
<g>
</g>
<g>
</g>
<g>
</g>
<g>
</g>
</svg>
